<?xml version="1.0" encoding="UTF-8" standalone="no"?>
<!DOCTYPE svg PUBLIC "-//W3C//DTD SVG 1.1//EN"
 "http://www.w3.org/Graphics/SVG/1.1/DTD/svg11.dtd">
<!-- Generated by graphviz version 2.38.0 (20140413.2041)
 -->
<!-- Title: G Pages: 1 -->
<svg width="704pt" height="968pt"
 viewBox="0.00 0.00 703.50 968.00" xmlns="http://www.w3.org/2000/svg" xmlns:xlink="http://www.w3.org/1999/xlink">
<g id="graph0" class="graph" transform="scale(1 1) rotate(0) translate(4 964)">
<title>G</title>
<polygon fill="white" stroke="none" points="-4,4 -4,-964 699.5,-964 699.5,4 -4,4"/>
<!-- 140683810185288 -->
<g id="node1" class="node"><title>140683810185288</title>
<polygon fill="none" stroke="black" points="34.5,-913.5 34.5,-959.5 366.5,-959.5 366.5,-913.5 34.5,-913.5"/>
<text text-anchor="middle" x="107" y="-932.8" font-family="Times,serif" font-size="14.00">conv_input: InputLayer</text>
<polyline fill="none" stroke="black" points="179.5,-913.5 179.5,-959.5 "/>
<text text-anchor="middle" x="207" y="-944.3" font-family="Times,serif" font-size="14.00">input:</text>
<polyline fill="none" stroke="black" points="179.5,-936.5 234.5,-936.5 "/>
<text text-anchor="middle" x="207" y="-921.3" font-family="Times,serif" font-size="14.00">output:</text>
<polyline fill="none" stroke="black" points="234.5,-913.5 234.5,-959.5 "/>
<text text-anchor="middle" x="300.5" y="-944.3" font-family="Times,serif" font-size="14.00">(None, 32, 32, 32, 1)</text>
<polyline fill="none" stroke="black" points="234.5,-936.5 366.5,-936.5 "/>
<text text-anchor="middle" x="300.5" y="-921.3" font-family="Times,serif" font-size="14.00">(None, 32, 32, 32, 1)</text>
</g>
<!-- 140683810185736 -->
<g id="node2" class="node"><title>140683810185736</title>
<polygon fill="none" stroke="black" points="42,-830.5 42,-876.5 359,-876.5 359,-830.5 42,-830.5"/>
<text text-anchor="middle" x="103.5" y="-849.8" font-family="Times,serif" font-size="14.00">conv3d_1: Conv3D</text>
<polyline fill="none" stroke="black" points="165,-830.5 165,-876.5 "/>
<text text-anchor="middle" x="192.5" y="-861.3" font-family="Times,serif" font-size="14.00">input:</text>
<polyline fill="none" stroke="black" points="165,-853.5 220,-853.5 "/>
<text text-anchor="middle" x="192.5" y="-838.3" font-family="Times,serif" font-size="14.00">output:</text>
<polyline fill="none" stroke="black" points="220,-830.5 220,-876.5 "/>
<text text-anchor="middle" x="289.5" y="-861.3" font-family="Times,serif" font-size="14.00">(None, 32, 32, 32, 1)</text>
<polyline fill="none" stroke="black" points="220,-853.5 359,-853.5 "/>
<text text-anchor="middle" x="289.5" y="-838.3" font-family="Times,serif" font-size="14.00">(None, 14, 14, 14, 32)</text>
</g>
<!-- 140683810185288&#45;&gt;140683810185736 -->
<g id="edge1" class="edge"><title>140683810185288&#45;&gt;140683810185736</title>
<path fill="none" stroke="black" d="M200.5,-913.366C200.5,-905.152 200.5,-895.658 200.5,-886.725"/>
<polygon fill="black" stroke="black" points="204,-886.607 200.5,-876.607 197,-886.607 204,-886.607"/>
</g>
<!-- 140683810186016 -->
<g id="node3" class="node"><title>140683810186016</title>
<polygon fill="none" stroke="black" points="41,-747.5 41,-793.5 360,-793.5 360,-747.5 41,-747.5"/>
<text text-anchor="middle" x="103.5" y="-766.8" font-family="Times,serif" font-size="14.00">dropout_1: Dropout</text>
<polyline fill="none" stroke="black" points="166,-747.5 166,-793.5 "/>
<text text-anchor="middle" x="193.5" y="-778.3" font-family="Times,serif" font-size="14.00">input:</text>
<polyline fill="none" stroke="black" points="166,-770.5 221,-770.5 "/>
<text text-anchor="middle" x="193.5" y="-755.3" font-family="Times,serif" font-size="14.00">output:</text>
<polyline fill="none" stroke="black" points="221,-747.5 221,-793.5 "/>
<text text-anchor="middle" x="290.5" y="-778.3" font-family="Times,serif" font-size="14.00">(None, 14, 14, 14, 32)</text>
<polyline fill="none" stroke="black" points="221,-770.5 360,-770.5 "/>
<text text-anchor="middle" x="290.5" y="-755.3" font-family="Times,serif" font-size="14.00">(None, 14, 14, 14, 32)</text>
</g>
<!-- 140683810185736&#45;&gt;140683810186016 -->
<g id="edge2" class="edge"><title>140683810185736&#45;&gt;140683810186016</title>
<path fill="none" stroke="black" d="M200.5,-830.366C200.5,-822.152 200.5,-812.658 200.5,-803.725"/>
<polygon fill="black" stroke="black" points="204,-803.607 200.5,-793.607 197,-803.607 204,-803.607"/>
</g>
<!-- 140683810185792 -->
<g id="node4" class="node"><title>140683810185792</title>
<polygon fill="none" stroke="black" points="42,-664.5 42,-710.5 359,-710.5 359,-664.5 42,-664.5"/>
<text text-anchor="middle" x="103.5" y="-683.8" font-family="Times,serif" font-size="14.00">conv3d_2: Conv3D</text>
<polyline fill="none" stroke="black" points="165,-664.5 165,-710.5 "/>
<text text-anchor="middle" x="192.5" y="-695.3" font-family="Times,serif" font-size="14.00">input:</text>
<polyline fill="none" stroke="black" points="165,-687.5 220,-687.5 "/>
<text text-anchor="middle" x="192.5" y="-672.3" font-family="Times,serif" font-size="14.00">output:</text>
<polyline fill="none" stroke="black" points="220,-664.5 220,-710.5 "/>
<text text-anchor="middle" x="289.5" y="-695.3" font-family="Times,serif" font-size="14.00">(None, 14, 14, 14, 32)</text>
<polyline fill="none" stroke="black" points="220,-687.5 359,-687.5 "/>
<text text-anchor="middle" x="289.5" y="-672.3" font-family="Times,serif" font-size="14.00">(None, 12, 12, 12, 32)</text>
</g>
<!-- 140683810186016&#45;&gt;140683810185792 -->
<g id="edge3" class="edge"><title>140683810186016&#45;&gt;140683810185792</title>
<path fill="none" stroke="black" d="M200.5,-747.366C200.5,-739.152 200.5,-729.658 200.5,-720.725"/>
<polygon fill="black" stroke="black" points="204,-720.607 200.5,-710.607 197,-720.607 204,-720.607"/>
</g>
<!-- 140683810186072 -->
<g id="node5" class="node"><title>140683810186072</title>
<polygon fill="none" stroke="black" points="0,-581.5 0,-627.5 401,-627.5 401,-581.5 0,-581.5"/>
<text text-anchor="middle" x="103.5" y="-600.8" font-family="Times,serif" font-size="14.00">max_pooling3d_1: MaxPooling3D</text>
<polyline fill="none" stroke="black" points="207,-581.5 207,-627.5 "/>
<text text-anchor="middle" x="234.5" y="-612.3" font-family="Times,serif" font-size="14.00">input:</text>
<polyline fill="none" stroke="black" points="207,-604.5 262,-604.5 "/>
<text text-anchor="middle" x="234.5" y="-589.3" font-family="Times,serif" font-size="14.00">output:</text>
<polyline fill="none" stroke="black" points="262,-581.5 262,-627.5 "/>
<text text-anchor="middle" x="331.5" y="-612.3" font-family="Times,serif" font-size="14.00">(None, 12, 12, 12, 32)</text>
<polyline fill="none" stroke="black" points="262,-604.5 401,-604.5 "/>
<text text-anchor="middle" x="331.5" y="-589.3" font-family="Times,serif" font-size="14.00">(None, 6, 6, 6, 32)</text>
</g>
<!-- 140683810185792&#45;&gt;140683810186072 -->
<g id="edge4" class="edge"><title>140683810185792&#45;&gt;140683810186072</title>
<path fill="none" stroke="black" d="M200.5,-664.366C200.5,-656.152 200.5,-646.658 200.5,-637.725"/>
<polygon fill="black" stroke="black" points="204,-637.607 200.5,-627.607 197,-637.607 204,-637.607"/>
</g>
<!-- 140687224865792 -->
<g id="node7" class="node"><title>140687224865792</title>
<polygon fill="none" stroke="black" points="83,-498.5 83,-544.5 382,-544.5 382,-498.5 83,-498.5"/>
<text text-anchor="middle" x="145.5" y="-517.8" font-family="Times,serif" font-size="14.00">dropout_2: Dropout</text>
<polyline fill="none" stroke="black" points="208,-498.5 208,-544.5 "/>
<text text-anchor="middle" x="235.5" y="-529.3" font-family="Times,serif" font-size="14.00">input:</text>
<polyline fill="none" stroke="black" points="208,-521.5 263,-521.5 "/>
<text text-anchor="middle" x="235.5" y="-506.3" font-family="Times,serif" font-size="14.00">output:</text>
<polyline fill="none" stroke="black" points="263,-498.5 263,-544.5 "/>
<text text-anchor="middle" x="322.5" y="-529.3" font-family="Times,serif" font-size="14.00">(None, 6, 6, 6, 32)</text>
<polyline fill="none" stroke="black" points="263,-521.5 382,-521.5 "/>
<text text-anchor="middle" x="322.5" y="-506.3" font-family="Times,serif" font-size="14.00">(None, 6, 6, 6, 32)</text>
</g>
<!-- 140683810186072&#45;&gt;140687224865792 -->
<g id="edge5" class="edge"><title>140683810186072&#45;&gt;140687224865792</title>
<path fill="none" stroke="black" d="M209.244,-581.366C212.56,-572.973 216.403,-563.245 219.999,-554.143"/>
<polygon fill="black" stroke="black" points="223.347,-555.193 223.766,-544.607 216.837,-552.621 223.347,-555.193"/>
</g>
<!-- 140687224867752 -->
<g id="node6" class="node"><title>140687224867752</title>
<polygon fill="none" stroke="black" points="419.5,-581.5 419.5,-627.5 695.5,-627.5 695.5,-581.5 419.5,-581.5"/>
<text text-anchor="middle" x="495.5" y="-600.8" font-family="Times,serif" font-size="14.00">aspect_input: InputLayer</text>
<polyline fill="none" stroke="black" points="571.5,-581.5 571.5,-627.5 "/>
<text text-anchor="middle" x="599" y="-612.3" font-family="Times,serif" font-size="14.00">input:</text>
<polyline fill="none" stroke="black" points="571.5,-604.5 626.5,-604.5 "/>
<text text-anchor="middle" x="599" y="-589.3" font-family="Times,serif" font-size="14.00">output:</text>
<polyline fill="none" stroke="black" points="626.5,-581.5 626.5,-627.5 "/>
<text text-anchor="middle" x="661" y="-612.3" font-family="Times,serif" font-size="14.00">(None, 2)</text>
<polyline fill="none" stroke="black" points="626.5,-604.5 695.5,-604.5 "/>
<text text-anchor="middle" x="661" y="-589.3" font-family="Times,serif" font-size="14.00">(None, 2)</text>
</g>
<!-- 140687224867976 -->
<g id="node8" class="node"><title>140687224867976</title>
<polygon fill="none" stroke="black" points="432.5,-498.5 432.5,-544.5 672.5,-544.5 672.5,-498.5 432.5,-498.5"/>
<text text-anchor="middle" x="483.5" y="-517.8" font-family="Times,serif" font-size="14.00">dense_1: Dense</text>
<polyline fill="none" stroke="black" points="534.5,-498.5 534.5,-544.5 "/>
<text text-anchor="middle" x="562" y="-529.3" font-family="Times,serif" font-size="14.00">input:</text>
<polyline fill="none" stroke="black" points="534.5,-521.5 589.5,-521.5 "/>
<text text-anchor="middle" x="562" y="-506.3" font-family="Times,serif" font-size="14.00">output:</text>
<polyline fill="none" stroke="black" points="589.5,-498.5 589.5,-544.5 "/>
<text text-anchor="middle" x="631" y="-529.3" font-family="Times,serif" font-size="14.00">(None, 2)</text>
<polyline fill="none" stroke="black" points="589.5,-521.5 672.5,-521.5 "/>
<text text-anchor="middle" x="631" y="-506.3" font-family="Times,serif" font-size="14.00">(None, 128)</text>
</g>
<!-- 140687224867752&#45;&gt;140687224867976 -->
<g id="edge6" class="edge"><title>140687224867752&#45;&gt;140687224867976</title>
<path fill="none" stroke="black" d="M556.134,-581.366C555.627,-573.152 555.041,-563.658 554.489,-554.725"/>
<polygon fill="black" stroke="black" points="557.974,-554.372 553.865,-544.607 550.987,-554.804 557.974,-554.372"/>
</g>
<!-- 140687224866856 -->
<g id="node9" class="node"><title>140687224866856</title>
<polygon fill="none" stroke="black" points="106.5,-415.5 106.5,-461.5 390.5,-461.5 390.5,-415.5 106.5,-415.5"/>
<text text-anchor="middle" x="161.5" y="-434.8" font-family="Times,serif" font-size="14.00">flatten_1: Flatten</text>
<polyline fill="none" stroke="black" points="216.5,-415.5 216.5,-461.5 "/>
<text text-anchor="middle" x="244" y="-446.3" font-family="Times,serif" font-size="14.00">input:</text>
<polyline fill="none" stroke="black" points="216.5,-438.5 271.5,-438.5 "/>
<text text-anchor="middle" x="244" y="-423.3" font-family="Times,serif" font-size="14.00">output:</text>
<polyline fill="none" stroke="black" points="271.5,-415.5 271.5,-461.5 "/>
<text text-anchor="middle" x="331" y="-446.3" font-family="Times,serif" font-size="14.00">(None, 6, 6, 6, 32)</text>
<polyline fill="none" stroke="black" points="271.5,-438.5 390.5,-438.5 "/>
<text text-anchor="middle" x="331" y="-423.3" font-family="Times,serif" font-size="14.00">(None, 6912)</text>
</g>
<!-- 140687224865792&#45;&gt;140687224866856 -->
<g id="edge7" class="edge"><title>140687224865792&#45;&gt;140687224866856</title>
<path fill="none" stroke="black" d="M236.872,-498.366C238.512,-490.062 240.411,-480.451 242.192,-471.434"/>
<polygon fill="black" stroke="black" points="245.629,-472.096 244.133,-461.607 238.762,-470.739 245.629,-472.096"/>
</g>
<!-- 140687224866968 -->
<g id="node10" class="node"><title>140687224866968</title>
<polygon fill="none" stroke="black" points="417,-415.5 417,-461.5 680,-461.5 680,-415.5 417,-415.5"/>
<text text-anchor="middle" x="479.5" y="-434.8" font-family="Times,serif" font-size="14.00">dropout_3: Dropout</text>
<polyline fill="none" stroke="black" points="542,-415.5 542,-461.5 "/>
<text text-anchor="middle" x="569.5" y="-446.3" font-family="Times,serif" font-size="14.00">input:</text>
<polyline fill="none" stroke="black" points="542,-438.5 597,-438.5 "/>
<text text-anchor="middle" x="569.5" y="-423.3" font-family="Times,serif" font-size="14.00">output:</text>
<polyline fill="none" stroke="black" points="597,-415.5 597,-461.5 "/>
<text text-anchor="middle" x="638.5" y="-446.3" font-family="Times,serif" font-size="14.00">(None, 128)</text>
<polyline fill="none" stroke="black" points="597,-438.5 680,-438.5 "/>
<text text-anchor="middle" x="638.5" y="-423.3" font-family="Times,serif" font-size="14.00">(None, 128)</text>
</g>
<!-- 140687224867976&#45;&gt;140687224866968 -->
<g id="edge8" class="edge"><title>140687224867976&#45;&gt;140687224866968</title>
<path fill="none" stroke="black" d="M551.407,-498.366C551.001,-490.152 550.532,-480.658 550.091,-471.725"/>
<polygon fill="black" stroke="black" points="553.581,-471.422 549.592,-461.607 546.589,-471.767 553.581,-471.422"/>
</g>
<!-- 140687224865904 -->
<g id="node11" class="node"><title>140687224865904</title>
<polygon fill="none" stroke="black" points="201,-332.5 201,-378.5 596,-378.5 596,-332.5 201,-332.5"/>
<text text-anchor="middle" x="285" y="-351.8" font-family="Times,serif" font-size="14.00">concatenate_1: Concatenate</text>
<polyline fill="none" stroke="black" points="369,-332.5 369,-378.5 "/>
<text text-anchor="middle" x="396.5" y="-363.3" font-family="Times,serif" font-size="14.00">input:</text>
<polyline fill="none" stroke="black" points="369,-355.5 424,-355.5 "/>
<text text-anchor="middle" x="396.5" y="-340.3" font-family="Times,serif" font-size="14.00">output:</text>
<polyline fill="none" stroke="black" points="424,-332.5 424,-378.5 "/>
<text text-anchor="middle" x="510" y="-363.3" font-family="Times,serif" font-size="14.00">[(None, 6912), (None, 128)]</text>
<polyline fill="none" stroke="black" points="424,-355.5 596,-355.5 "/>
<text text-anchor="middle" x="510" y="-340.3" font-family="Times,serif" font-size="14.00">(None, 7040)</text>
</g>
<!-- 140687224866856&#45;&gt;140687224865904 -->
<g id="edge9" class="edge"><title>140687224866856&#45;&gt;140687224865904</title>
<path fill="none" stroke="black" d="M289.488,-415.366C307.76,-405.5 329.448,-393.788 348.649,-383.419"/>
<polygon fill="black" stroke="black" points="350.425,-386.438 357.561,-378.607 347.099,-380.279 350.425,-386.438"/>
</g>
<!-- 140687224866968&#45;&gt;140687224865904 -->
<g id="edge10" class="edge"><title>140687224866968&#45;&gt;140687224865904</title>
<path fill="none" stroke="black" d="M507.512,-415.366C489.24,-405.5 467.552,-393.788 448.351,-383.419"/>
<polygon fill="black" stroke="black" points="449.901,-380.279 439.439,-378.607 446.575,-386.438 449.901,-380.279"/>
</g>
<!-- 140687224865568 -->
<g id="node12" class="node"><title>140687224865568</title>
<polygon fill="none" stroke="black" points="264,-249.5 264,-295.5 533,-295.5 533,-249.5 264,-249.5"/>
<text text-anchor="middle" x="326.5" y="-268.8" font-family="Times,serif" font-size="14.00">dropout_4: Dropout</text>
<polyline fill="none" stroke="black" points="389,-249.5 389,-295.5 "/>
<text text-anchor="middle" x="416.5" y="-280.3" font-family="Times,serif" font-size="14.00">input:</text>
<polyline fill="none" stroke="black" points="389,-272.5 444,-272.5 "/>
<text text-anchor="middle" x="416.5" y="-257.3" font-family="Times,serif" font-size="14.00">output:</text>
<polyline fill="none" stroke="black" points="444,-249.5 444,-295.5 "/>
<text text-anchor="middle" x="488.5" y="-280.3" font-family="Times,serif" font-size="14.00">(None, 7040)</text>
<polyline fill="none" stroke="black" points="444,-272.5 533,-272.5 "/>
<text text-anchor="middle" x="488.5" y="-257.3" font-family="Times,serif" font-size="14.00">(None, 7040)</text>
</g>
<!-- 140687224865904&#45;&gt;140687224865568 -->
<g id="edge11" class="edge"><title>140687224865904&#45;&gt;140687224865568</title>
<path fill="none" stroke="black" d="M398.5,-332.366C398.5,-324.152 398.5,-314.658 398.5,-305.725"/>
<polygon fill="black" stroke="black" points="402,-305.607 398.5,-295.607 395,-305.607 402,-305.607"/>
</g>
<!-- 140687224867248 -->
<g id="node13" class="node"><title>140687224867248</title>
<polygon fill="none" stroke="black" points="275.5,-166.5 275.5,-212.5 521.5,-212.5 521.5,-166.5 275.5,-166.5"/>
<text text-anchor="middle" x="326.5" y="-185.8" font-family="Times,serif" font-size="14.00">dense_2: Dense</text>
<polyline fill="none" stroke="black" points="377.5,-166.5 377.5,-212.5 "/>
<text text-anchor="middle" x="405" y="-197.3" font-family="Times,serif" font-size="14.00">input:</text>
<polyline fill="none" stroke="black" points="377.5,-189.5 432.5,-189.5 "/>
<text text-anchor="middle" x="405" y="-174.3" font-family="Times,serif" font-size="14.00">output:</text>
<polyline fill="none" stroke="black" points="432.5,-166.5 432.5,-212.5 "/>
<text text-anchor="middle" x="477" y="-197.3" font-family="Times,serif" font-size="14.00">(None, 7040)</text>
<polyline fill="none" stroke="black" points="432.5,-189.5 521.5,-189.5 "/>
<text text-anchor="middle" x="477" y="-174.3" font-family="Times,serif" font-size="14.00">(None, 528)</text>
</g>
<!-- 140687224865568&#45;&gt;140687224867248 -->
<g id="edge12" class="edge"><title>140687224865568&#45;&gt;140687224867248</title>
<path fill="none" stroke="black" d="M398.5,-249.366C398.5,-241.152 398.5,-231.658 398.5,-222.725"/>
<polygon fill="black" stroke="black" points="402,-222.607 398.5,-212.607 395,-222.607 402,-222.607"/>
</g>
<!-- 140687224868480 -->
<g id="node14" class="node"><title>140687224868480</title>
<polygon fill="none" stroke="black" points="267,-83.5 267,-129.5 530,-129.5 530,-83.5 267,-83.5"/>
<text text-anchor="middle" x="329.5" y="-102.8" font-family="Times,serif" font-size="14.00">dropout_5: Dropout</text>
<polyline fill="none" stroke="black" points="392,-83.5 392,-129.5 "/>
<text text-anchor="middle" x="419.5" y="-114.3" font-family="Times,serif" font-size="14.00">input:</text>
<polyline fill="none" stroke="black" points="392,-106.5 447,-106.5 "/>
<text text-anchor="middle" x="419.5" y="-91.3" font-family="Times,serif" font-size="14.00">output:</text>
<polyline fill="none" stroke="black" points="447,-83.5 447,-129.5 "/>
<text text-anchor="middle" x="488.5" y="-114.3" font-family="Times,serif" font-size="14.00">(None, 528)</text>
<polyline fill="none" stroke="black" points="447,-106.5 530,-106.5 "/>
<text text-anchor="middle" x="488.5" y="-91.3" font-family="Times,serif" font-size="14.00">(None, 528)</text>
</g>
<!-- 140687224867248&#45;&gt;140687224868480 -->
<g id="edge13" class="edge"><title>140687224867248&#45;&gt;140687224868480</title>
<path fill="none" stroke="black" d="M398.5,-166.366C398.5,-158.152 398.5,-148.658 398.5,-139.725"/>
<polygon fill="black" stroke="black" points="402,-139.607 398.5,-129.607 395,-139.607 402,-139.607"/>
</g>
<!-- 140687224866520 -->
<g id="node15" class="node"><title>140687224866520</title>
<polygon fill="none" stroke="black" points="278.5,-0.5 278.5,-46.5 518.5,-46.5 518.5,-0.5 278.5,-0.5"/>
<text text-anchor="middle" x="329.5" y="-19.8" font-family="Times,serif" font-size="14.00">dense_3: Dense</text>
<polyline fill="none" stroke="black" points="380.5,-0.5 380.5,-46.5 "/>
<text text-anchor="middle" x="408" y="-31.3" font-family="Times,serif" font-size="14.00">input:</text>
<polyline fill="none" stroke="black" points="380.5,-23.5 435.5,-23.5 "/>
<text text-anchor="middle" x="408" y="-8.3" font-family="Times,serif" font-size="14.00">output:</text>
<polyline fill="none" stroke="black" points="435.5,-0.5 435.5,-46.5 "/>
<text text-anchor="middle" x="477" y="-31.3" font-family="Times,serif" font-size="14.00">(None, 528)</text>
<polyline fill="none" stroke="black" points="435.5,-23.5 518.5,-23.5 "/>
<text text-anchor="middle" x="477" y="-8.3" font-family="Times,serif" font-size="14.00">(None, 10)</text>
</g>
<!-- 140687224868480&#45;&gt;140687224866520 -->
<g id="edge14" class="edge"><title>140687224868480&#45;&gt;140687224866520</title>
<path fill="none" stroke="black" d="M398.5,-83.3664C398.5,-75.1516 398.5,-65.6579 398.5,-56.7252"/>
<polygon fill="black" stroke="black" points="402,-56.6068 398.5,-46.6068 395,-56.6069 402,-56.6068"/>
</g>
</g>
</svg>
